<svg xmlns="http://www.w3.org/2000/svg" viewBox="0 0 64 64">
  <defs>
    <radialGradient id="g" cx="50%" cy="42%" r="60%">
      <stop offset="0%" stop-color="#ffd6a0" />
      <stop offset="45%" stop-color="#e2496a" />
      <stop offset="100%" stop-color="#8b1430" />
    </radialGradient>
  </defs>
  <rect width="64" height="64" rx="14" fill="#0c0509" />
  <path d="M32 50 C34 42 30 36 32 30" stroke="#3f7d3a" stroke-width="3" fill="none" stroke-linecap="round" />
  <g fill="url(#g)" stroke="rgba(60,5,18,0.35)" stroke-width="0.8">
    <path d="M32 14 C26 18 26 30 32 34 C38 30 38 18 32 14 Z" />
    <path d="M32 34 C26 30 16 32 16 32 C18 40 28 40 32 34 Z" />
    <path d="M32 34 C38 30 48 32 48 32 C46 40 36 40 32 34 Z" />
    <path d="M32 34 C28 28 30 20 30 20 C24 24 24 32 32 34 Z" />
    <path d="M32 34 C36 28 34 20 34 20 C40 24 40 32 32 34 Z" />
  </g>
  <circle cx="32" cy="30" r="3.4" fill="#ffe0b4" />
</svg>
